<?xml version="1.0" encoding="utf-8"?>
<!-- Generator: Adobe Illustrator 18.0.0, SVG Export Plug-In . SVG Version: 6.00 Build 0)  -->
<!DOCTYPE svg PUBLIC "-//W3C//DTD SVG 1.1//EN" "http://www.w3.org/Graphics/SVG/1.1/DTD/svg11.dtd">
<svg version="1.1" xmlns="http://www.w3.org/2000/svg" xmlns:xlink="http://www.w3.org/1999/xlink" x="0px" y="0px"
	 viewBox="0 0 600 600" enable-background="new 0 0 600 600" xml:space="preserve">
<g id="rascunho" display="none">
</g>
<g id="Camada_2" display="none">
</g>
<g id="Camada_4" display="none">
	<rect x="0" y="0" display="inline" fill="#DE962C" width="600" height="600"/>
</g>
<g id="Camada_3">
	<g>
		<path fill="#FFFFFF" stroke="#6E4892" stroke-width="6" stroke-linejoin="round" stroke-miterlimit="10" d="M263.4,305.2"/>
		<path fill="#FFFFFF" d="M212,293.7c-8.1-8-16.5-11.7-17.8-12.3v-3.6c0-4.7-11.3-12.9-12.6-13.9c0-0.3-0.1-0.9-0.1-1.3
			c0-3.5,1.6-6.4,1.6-6.4c0.1-0.1,0-0.3-0.1-0.3c-9.8-9.2-19.8-13.5-19.9-13.6c-2.7-1.4-4.5-4.3-4.5-7.3c0-2.2,0.8-3.6,0.8-3.6
			c0.1-0.1,0.1-0.2,0-0.3c-0.1-0.1-0.2-0.1-0.3-0.1c-3,1.4-5,4.6-5,7.9v0.6c-1.8-0.3-3.7-0.4-5.5-0.4c-18.5,0-29.3,14.7-29.4,14.9
			c-2.5,3.4-6.5,5.5-10.8,5.5c-3,0-5.7-1.3-5.8-1.3c-0.1-0.1-0.2,0-0.3,0.1c-0.1,0.1-0.1,0.2-0.1,0.3c1.9,3.7,5,5.7,6,6.2
			c-1.5,2-10.8,14.8-10.8,33.4c0,2.1,0.1,3.3,0.1,3.3c0,0.1,0.1,0.3,0.3,0.3c0.2,0,0.3-0.1,0.3-0.3c0.7-6.4,5.6-9.4,7.1-10.2
			c-0.1,1.1-0.4,3.7-0.4,6.9c0,25.6,16.7,40.3,16.9,40.5c0.1,0.1,0.2,0.1,0.2,0.1c0.1,0,0.2-0.1,0.2-0.1c3.6-7.1,10.5-9.9,11.4-10.2
			c8,3,13.5,11.1,13.5,19.6c0,4.5-2,8.9-2,8.9c0,0.1,0,0.2,0,0.3c0.1,0.1,0.2,0.1,0.3,0.1c7.2-1.5,13.4-7.2,15.9-14.5
			c0.4,1.7,0.6,3.4,0.6,5.2c0,15.5-15,20.1-15.2,20.1c-0.1,0-0.2,0.2-0.2,0.3c0,0.1,0.1,0.2,0.3,0.3c1.1,0.1,2.3,0.1,3.5,0.1
			c16.1,0,34-14.6,34-35.6c0-4.8-1-8.6-1.3-9.7c1.5-0.3,4.6-2.3,5.7-5.4c0-0.1,0-0.2-0.1-0.3c-0.1-0.1-0.2-0.1-0.3,0l-0.2,0.1
			c-0.9,0.3-1.8,0.5-2.7,0.5c-3.9,0-6.4-3.9-6.5-3.9c-2.9-4.7-6.3-7.7-8-9c16.9,2.8,27.3,12.7,27.4,12.8c0.1,0.1,0.3,0.1,0.4,0
			c4.1-3.5,6.3-6.3,6.3-6.3c0-0.1,0.1-0.1,0.1-0.2l0-0.2c0-4.2,2.3-8,2.3-8c3.2-5.4,4.6-9.4,4.6-9.5
			C212.1,293.9,212.1,293.8,212,293.7z M185.2,282.5c-1,2-1.1,4-1.1,4c-2-4.8-6.6-8.5-12.6-8.5c8.2,0,14.6,1.9,14.6,1.9
			C185.8,281.5,185.2,282.5,185.2,282.5z"/>
		<g>
			<path fill="#FFFFFF" d="M281.7,319c0.7,0.7,1,1.4,0.9,2.2c-0.1,0.8-0.4,1.5-0.9,2c-2.1,2.1-4.6,4-7.5,5.5
				c-2.9,1.5-6.6,2.3-11.1,2.3c-3.3,0-6.3-0.6-9.1-1.8s-5.2-2.8-7.3-4.9c-2-2.1-3.6-4.6-4.8-7.6c-1.2-3-1.8-6.2-1.8-9.8v-22
				c0-3.5,0.6-6.7,1.8-9.7c1.2-3,2.8-5.5,4.8-7.6c2-2.1,4.5-3.8,7.3-5s5.8-1.8,9.1-1.8c2.2,0,4.2,0.2,6,0.7c1.8,0.4,3.4,1,4.9,1.6
				c1.5,0.7,2.8,1.4,3.9,2.3c1.1,0.8,2,1.6,2.8,2.4c1.4,1.4,1.4,2.8,0,4.2l-2.3,2.3c-0.7,0.7-1.3,1-1.9,1c-0.6,0-1.3-0.3-2.1-1
				c-0.9-0.8-2.2-1.7-3.9-2.8c-1.8-1.1-4.2-1.6-7.3-1.6c-2.1,0-4,0.4-5.7,1.2c-1.6,0.8-3,1.8-4.2,3.2c-1.2,1.4-2,3-2.6,4.8
				c-0.6,1.8-0.9,3.8-0.9,5.8v22c0,4.5,1.2,8.1,3.5,10.8c2.4,2.8,5.7,4.2,9.9,4.2c2.9,0,5.4-0.5,7.4-1.7c2-1.1,3.7-2.2,5-3.3
				c0.6-0.5,1.3-0.8,2-0.9c0.8-0.1,1.5,0.2,2.2,0.9L281.7,319z"/>
			<path fill="#FFFFFF" d="M338.3,330c-0.7,0.5-1.4,0.8-2.3,0.7c-0.8-0.1-1.6-0.3-2.3-0.7l-29.1-17c-0.5-0.3-0.9-0.3-1.3,0
				c-0.4,0.3-0.6,0.6-0.8,1l-4.1,13.6c-0.5,1.6-1.6,2.4-3.4,2.4h-4.9c-1.9,0-2.6-0.9-2.1-2.8l20-62.5c0.3-1.1,0.8-1.8,1.3-2.2
				c0.6-0.4,1.3-0.5,2.3-0.5h7c0.9,0,1.7,0.2,2.3,0.5c0.6,0.4,1,1.1,1.3,2.2l19.1,59.8c0.5,1.5,0.2,2.7-0.8,3.6L338.3,330z
				 M316.2,274.7c-0.2-0.7-0.5-1.1-1-1.1c-0.5,0-0.8,0.4-1,1.1l-7.9,26.4c-0.3,0.9-0.3,1.5-0.1,2c0.2,0.4,0.5,0.8,1,1l18.8,11
				c0.7,0.5,1.3,0.5,1.6,0.2c0.3-0.4,0.4-0.8,0.3-1.3L316.2,274.7z"/>
			<path fill="#FFFFFF" d="M352.5,317.3c0.7-0.7,1.4-1,2.2-0.9c0.8,0.1,1.5,0.4,2,0.9c0.5,0.5,1.1,1,1.8,1.5
				c0.7,0.6,1.4,1.1,2.3,1.6c0.9,0.5,1.9,0.8,3,1.1c1.1,0.3,2.4,0.5,3.9,0.5c3.2,0,5.8-0.9,7.9-2.7c2.1-1.8,3.1-4,3.1-6.6
				c0-3-0.9-5.4-2.8-7.2c-1.8-1.8-4.8-3.7-8.8-5.6c-2.5-1.2-4.8-2.5-6.8-3.8c-2-1.3-3.8-2.8-5.3-4.5c-1.5-1.7-2.6-3.5-3.4-5.6
				c-0.8-2.1-1.1-4.5-1.1-7.3c0-2.3,0.4-4.5,1.3-6.6c0.9-2.1,2.1-4,3.8-5.6c1.7-1.6,3.7-3,6-4c2.4-1,5-1.5,8-1.5
				c3.8,0,7,0.7,9.8,2.2c2.7,1.5,4.8,3,6.5,4.6c1.4,1.4,1.4,2.8,0,4.2l-2.3,2.4c-0.7,0.7-1.3,1-1.9,1c-0.6,0-1.3-0.3-2.1-1
				c-0.9-0.8-2.2-1.7-4-2.8c-1.8-1.1-3.8-1.6-5.9-1.6c-1.5,0-2.8,0.3-4,0.8c-1.2,0.5-2.3,1.2-3.2,2s-1.6,1.7-2.1,2.8
				c-0.5,1-0.8,2.1-0.8,3.3c0,1.5,0.2,2.8,0.6,3.9c0.4,1.1,1.1,2.2,2,3.2c0.9,1,2.1,1.9,3.5,2.8c1.4,0.9,3.2,1.7,5.3,2.6
				c2.7,1.2,5.2,2.5,7.3,3.8c2.1,1.3,3.9,2.8,5.4,4.4c1.5,1.6,2.6,3.5,3.3,5.6c0.8,2.1,1.2,4.5,1.2,7.3c0,2.5-0.5,4.9-1.6,7.2
				c-1.1,2.3-2.5,4.3-4.4,5.9c-1.9,1.7-4,3.1-6.5,4.1c-2.5,1-5.2,1.5-8,1.5c-4.5,0-8.1-0.7-10.7-2c-2.6-1.4-4.8-3.1-6.8-5.3
				c-0.5-0.5-0.8-1.2-0.9-2c-0.1-0.8,0.2-1.5,0.9-2.2L352.5,317.3z"/>
			<path fill="#FFFFFF" d="M437.2,265c0-0.9,0.3-1.7,0.8-2.2c0.5-0.5,1.3-0.8,2.2-0.8h3.5c0.9,0,1.7,0.3,2.2,0.8
				c0.5,0.5,0.8,1.3,0.8,2.2v43c0,3.4-0.6,6.5-1.8,9.3c-1.2,2.8-2.8,5.3-4.9,7.3c-2.1,2-4.6,3.6-7.4,4.7c-2.9,1.1-6,1.7-9.4,1.7
				s-6.5-0.6-9.4-1.7c-2.9-1.1-5.3-2.7-7.4-4.7c-2.1-2-3.7-4.4-4.9-7.3c-1.2-2.8-1.8-5.9-1.8-9.3v-43c0-0.9,0.3-1.7,0.8-2.2
				c0.5-0.5,1.3-0.8,2.2-0.8h3.5c0.9,0,1.7,0.3,2.2,0.8c0.5,0.5,0.8,1.3,0.8,2.2v43c0,4,1.2,7.3,3.6,10c2.4,2.7,5.9,4,10.4,4
				c4.5,0,8-1.3,10.4-4c2.4-2.7,3.6-6,3.6-10V265z"/>
			<path fill="#FFFFFF" d="M463.2,330c-0.9,0-1.7-0.3-2.2-0.8c-0.5-0.5-0.8-1.3-0.8-2.2v-62c0-0.9,0.3-1.7,0.8-2.2
				c0.5-0.5,1.3-0.8,2.2-0.8h3.5c0.9,0,1.7,0.3,2.2,0.8c0.5,0.5,0.8,1.3,0.8,2.2v55c0,0.7,0.3,1,1,1H498c0.9,0,1.7,0.3,2.2,0.8
				c0.5,0.5,0.8,1.3,0.8,2.2v3c0,0.9-0.3,1.7-0.8,2.2c-0.5,0.5-1.3,0.8-2.2,0.8H463.2z"/>
		</g>
	</g>
</g>
</svg>
